<?xml version="1.0" encoding="UTF-8"?>
<svg xmlns="http://www.w3.org/2000/svg" width="1920" height="1080" viewBox="0 0 1920 1080">
  <defs>
    <linearGradient id="bg-title" x1="0" y1="0" x2="0" y2="1">
      <stop offset="0" stop-color="hsl(260,25%,12%)"/>
      <stop offset="0.5" stop-color="hsl(220,20%,8%)"/>
      <stop offset="1" stop-color="hsl(260,30%,5%)"/>
    </linearGradient>
  </defs>
  <rect width="1920" height="1080" fill="url(#bg-title)"/>
  <g opacity="0.06" stroke="rgba(255,255,255,0.5)" fill="none">
    <path d="M0 0 L400 1080"/><path d="M80 0 L480 1080"/><path d="M160 0 L560 1080"/><path d="M240 0 L640 1080"/><path d="M320 0 L720 1080"/><path d="M400 0 L800 1080"/><path d="M480 0 L880 1080"/><path d="M560 0 L960 1080"/><path d="M640 0 L1040 1080"/><path d="M720 0 L1120 1080"/><path d="M800 0 L1200 1080"/><path d="M880 0 L1280 1080"/><path d="M960 0 L1360 1080"/><path d="M1040 0 L1440 1080"/><path d="M1120 0 L1520 1080"/><path d="M1200 0 L1600 1080"/><path d="M1280 0 L1680 1080"/><path d="M1360 0 L1760 1080"/><path d="M1440 0 L1840 1080"/><path d="M1520 0 L1920 1080"/><path d="M1600 0 L2000 1080"/><path d="M1680 0 L2080 1080"/><path d="M1760 0 L2160 1080"/><path d="M1840 0 L2240 1080"/>
  </g>
</svg>