<?xml version="1.0" encoding="UTF-8"?>
<svg xmlns="http://www.w3.org/2000/svg" width="200" height="168" viewBox="0 0 200 168">
  <defs>
    <linearGradient id="bg-EXHUME" x1="0" y1="0" x2="1" y2="1">
      <stop offset="0" stop-color="hsl(160,52%,22%)"/>
      <stop offset="0.45" stop-color="hsl(202,45%,14%)"/>
      <stop offset="1" stop-color="hsl(256,38%,9%)"/>
    </linearGradient>
    <radialGradient id="br-EXHUME" cx="50%" cy="42%" r="68%">
      <stop offset="0" stop-color="#5ec8ff" stop-opacity="0.38"/>
      <stop offset="0.5" stop-color="#5ec8ff" stop-opacity="0.08"/>
      <stop offset="1" stop-color="#000" stop-opacity="0"/>
    </radialGradient>
    <radialGradient id="vg-EXHUME" cx="50%" cy="50%" r="75%">
      <stop offset="0.55" stop-color="rgba(0,0,0,0)"/>
      <stop offset="1" stop-color="rgba(0,0,0,0.55)"/>
    </radialGradient>
  </defs>
  <rect width="200" height="168" fill="url(#bg-EXHUME)"/>
  <rect width="200" height="168" fill="url(#br-EXHUME)"/>
  <g opacity="0.85"><path d="M100 38 C132 38 152 62 152 92 C152 124 128 142 100 142 C72 142 48 124 48 92 C48 62 68 38 100 38 Z" fill="rgba(20,40,72,0.55)" stroke="rgba(180,220,255,0.45)" stroke-width="2"/>
      <path d="M100 56 L100 108 M76 82 L124 82" stroke="rgba(255,255,255,0.2)" stroke-width="2" stroke-linecap="round"/>
      <circle cx="100" cy="82" r="22" fill="none" stroke="#5ec8ff" stroke-opacity="0.35" stroke-width="2.5"/></g>
  <g opacity="0.12" fill="none" stroke="rgba(255,255,255,0.6)" stroke-width="0.8">
    <path d="M24 40 Q100 12 176 40"/><path d="M32 128 Q100 154 168 128"/>
  </g>
  <rect width="200" height="168" fill="url(#vg-EXHUME)"/>
  <rect x="3" y="3" width="194" height="162" rx="4" fill="none" stroke="rgba(255,255,255,0.18)" stroke-width="2"/>
</svg>