<?xml version="1.0" encoding="UTF-8"?>
<svg xmlns="http://www.w3.org/2000/svg" width="200" height="168" viewBox="0 0 200 168">
  <defs>
    <linearGradient id="bg-RAMPAGE" x1="0" y1="0" x2="1" y2="1">
      <stop offset="0" stop-color="hsl(117,52%,22%)"/>
      <stop offset="0.45" stop-color="hsl(159,45%,14%)"/>
      <stop offset="1" stop-color="hsl(213,38%,9%)"/>
    </linearGradient>
    <radialGradient id="br-RAMPAGE" cx="50%" cy="42%" r="68%">
      <stop offset="0" stop-color="#ff5c5c" stop-opacity="0.38"/>
      <stop offset="0.5" stop-color="#ff5c5c" stop-opacity="0.08"/>
      <stop offset="1" stop-color="#000" stop-opacity="0"/>
    </radialGradient>
    <radialGradient id="vg-RAMPAGE" cx="50%" cy="50%" r="75%">
      <stop offset="0.55" stop-color="rgba(0,0,0,0)"/>
      <stop offset="1" stop-color="rgba(0,0,0,0.55)"/>
    </radialGradient>
  </defs>
  <rect width="200" height="168" fill="url(#bg-RAMPAGE)"/>
  <rect width="200" height="168" fill="url(#br-RAMPAGE)"/>
  <g opacity="0.85"><g fill="none" stroke="rgba(255,240,220,0.55)" stroke-width="2.2" stroke-linecap="round">
      <path d="M72 124 L118 36 L128 40 L84 130 Z" fill="rgba(40,12,12,0.5)"/>
      <path d="M118 36 L154 28 L132 48 Z" fill="rgba(255,200,180,0.25)"/>
      <path d="M76 118 Q100 108 122 98" opacity="0.7"/>
      <path d="M56 132 L144 120" stroke="#ff5c5c" stroke-opacity="0.35" stroke-width="3"/>
    </g>
    <ellipse cx="138" cy="118" rx="28" ry="14" transform="rotate(-4 138 118)" fill="rgba(0,0,0,0.35)" opacity="0.5"/></g>
  <g opacity="0.12" fill="none" stroke="rgba(255,255,255,0.6)" stroke-width="0.8">
    <path d="M24 40 Q100 12 176 40"/><path d="M32 128 Q100 154 168 128"/>
  </g>
  <rect width="200" height="168" fill="url(#vg-RAMPAGE)"/>
  <rect x="3" y="3" width="194" height="162" rx="4" fill="none" stroke="rgba(255,255,255,0.18)" stroke-width="2"/>
</svg>